<svg data-v-423bf9ae="" xmlns="http://www.w3.org/2000/svg" viewBox="0 0 266.80597966121127 60" class="font"><!----><!----><!----><g data-v-423bf9ae="" id="d769625d-d170-4358-a755-7544fd9e60a2" fill="white" transform="matrix(5.970149140426311,0,0,5.970149140426311,-1.6716381266115832,-20.656716730455308)"><path d="M0.28 3.71L0.28 3.71Q0.28 3.46 0.66 3.46L0.66 3.46Q0.71 3.46 0.84 3.47Q0.97 3.49 1.04 3.49L1.04 3.49Q1.18 3.49 1.56 3.51Q1.95 3.54 2.25 3.54L2.25 3.54Q2.69 3.54 3.18 3.51Q3.67 3.49 3.72 3.49L3.72 3.49Q3.96 3.49 3.96 3.63L3.96 3.63Q3.96 3.82 3.79 3.88Q3.63 3.95 3.42 3.97Q3.22 3.99 3.03 4.28Q2.84 4.56 2.81 5.14L2.81 5.14Q2.79 5.68 2.74 8.19Q2.70 10.70 2.70 10.99L2.70 10.99L2.70 11.55Q2.70 12.56 3.04 12.66L3.04 12.66Q3.39 12.77 3.64 12.77L3.64 12.77Q4.69 12.77 5.48 12.67Q6.27 12.57 6.67 12.42Q7.07 12.28 7.34 12.10Q7.60 11.93 7.68 11.78Q7.76 11.63 7.83 11.54Q7.91 11.44 7.99 11.44L7.99 11.44Q8.16 11.44 8.16 11.68L8.16 11.68Q8.16 12.28 7.56 12.89Q6.96 13.51 6.51 13.51L6.51 13.51Q5.50 13.51 4.24 13.44Q2.97 13.37 2.66 13.37L2.66 13.37Q2.27 13.37 1.76 13.43Q1.25 13.48 0.91 13.48L0.91 13.48Q0.50 13.48 0.50 13.31L0.50 13.31Q0.50 13.22 0.58 13.15Q0.66 13.09 0.73 13.09L0.73 13.09Q0.94 13.09 1.13 12.95L1.13 12.95Q1.39 12.75 1.50 12.23Q1.61 11.70 1.61 10.21L1.61 10.21L1.61 8.47Q1.61 8.09 1.63 7.29Q1.65 6.50 1.65 6.05L1.65 6.05Q1.65 5.67 1.62 4.77L1.62 4.77Q1.61 4.37 1.27 4.14Q0.94 3.92 0.49 3.91L0.49 3.91Q0.35 3.91 0.32 3.86Q0.28 3.81 0.28 3.71ZM8.72 3.71L8.72 3.71Q8.72 3.50 8.97 3.50L8.97 3.50Q9.06 3.50 9.36 3.53Q9.66 3.56 9.72 3.56L9.72 3.56Q9.93 3.56 10.29 3.54Q10.65 3.53 10.77 3.53L10.77 3.53Q11.03 3.53 11.10 3.72L11.10 3.72Q11.27 4.09 11.70 5.03Q12.14 5.98 12.40 6.54Q12.66 7.10 13.06 7.97Q13.47 8.83 13.72 9.37Q13.97 9.91 14.25 10.46Q14.52 11.00 14.66 11.26Q14.81 11.52 14.85 11.52Q14.90 11.52 14.95 11.47Q14.99 11.42 15.04 11.34Q15.09 11.26 15.13 11.17Q15.16 11.09 15.23 10.96Q15.29 10.82 15.32 10.75L15.32 10.75L17.12 7.03Q17.43 6.40 17.67 5.89Q17.91 5.39 18.05 5.08Q18.19 4.77 18.28 4.55Q18.38 4.33 18.43 4.21Q18.48 4.10 18.50 4.04Q18.52 3.98 18.54 3.94Q18.55 3.91 18.56 3.88Q18.58 3.85 18.61 3.75Q18.65 3.65 18.68 3.62Q18.72 3.58 18.82 3.54Q18.93 3.50 19.10 3.50L19.10 3.50Q19.36 3.50 19.59 3.51Q19.82 3.53 20.30 3.53L20.30 3.53Q20.54 3.53 20.54 3.71L20.54 3.71Q20.54 3.85 20.45 3.91Q20.36 3.98 20.08 4.02L20.08 4.02Q19.73 4.06 19.59 4.37Q19.45 4.68 19.45 5.54L19.45 5.54Q19.45 7.43 19.53 8.97Q19.61 10.50 19.61 10.89L19.61 10.89Q19.61 12.29 19.84 12.68Q20.06 13.06 20.78 13.06L20.78 13.06Q20.87 13.06 20.95 13.13Q21.03 13.20 21.03 13.26L21.03 13.26Q21.03 13.34 21.01 13.38Q21 13.43 20.96 13.45Q20.92 13.48 20.87 13.48Q20.83 13.48 20.72 13.48L20.72 13.48Q20.30 13.48 19.89 13.45Q19.49 13.43 19.29 13.43L19.29 13.43Q18.90 13.43 18.48 13.46Q18.06 13.50 17.84 13.50L17.84 13.50Q17.58 13.50 17.58 13.30L17.58 13.30Q17.58 13.17 17.70 13.12Q17.81 13.06 17.95 13.05Q18.10 13.03 18.26 12.87Q18.42 12.71 18.49 12.39L18.49 12.39Q18.55 12.11 18.55 11.49L18.55 11.49Q18.55 11.05 18.53 10.42Q18.51 9.79 18.48 9.19Q18.45 8.60 18.42 8.07Q18.40 7.55 18.38 7.21L18.38 7.21L18.35 6.87Q18.35 6.27 18.23 6.27L18.23 6.27Q18.21 6.27 18.19 6.29Q18.16 6.30 18.14 6.33Q18.12 6.36 18.09 6.38Q18.06 6.41 18.03 6.47Q18.00 6.54 17.98 6.58Q17.95 6.62 17.91 6.70Q17.86 6.78 17.84 6.83Q17.81 6.89 17.76 6.99Q17.71 7.08 17.68 7.15L17.68 7.15L15.74 11.09Q15.40 11.77 15.02 12.56L15.02 12.56Q14.77 13.09 14.71 13.18Q14.66 13.27 14.57 13.27L14.57 13.27Q14.45 13.27 14.36 13.15Q14.28 13.03 14.11 12.63Q13.94 12.22 13.82 11.96L13.82 11.96Q11.26 6.75 11.19 6.65L11.19 6.65Q11.14 6.59 11.10 6.59L11.10 6.59Q10.99 6.59 10.99 7.15L10.99 7.15Q10.98 8.25 10.92 9.31Q10.86 10.37 10.86 10.85L10.86 10.85L10.86 11.48Q10.86 11.84 10.88 12.04Q10.91 12.24 11.00 12.49Q11.09 12.75 11.33 12.89Q11.56 13.03 11.94 13.08L11.94 13.08Q12.01 13.08 12.07 13.13Q12.14 13.17 12.14 13.23L12.14 13.23Q12.14 13.38 12.10 13.43Q12.05 13.48 11.93 13.48L11.93 13.48Q11.65 13.48 11.09 13.45Q10.53 13.43 10.47 13.43L10.47 13.43Q10.44 13.43 10.07 13.45Q9.69 13.47 9.32 13.47L9.32 13.47Q9.21 13.47 9.16 13.45Q9.11 13.44 9.07 13.39Q9.03 13.34 9.03 13.24L9.03 13.24Q9.03 13.13 9.16 13.09Q9.28 13.05 9.44 13.04Q9.60 13.03 9.80 12.82Q10.00 12.60 10.09 12.18L10.09 12.18Q10.16 11.87 10.26 9.74Q10.36 7.62 10.36 6.59L10.36 6.59Q10.36 5.19 10.09 4.66Q9.81 4.13 8.90 3.92L8.90 3.92Q8.72 3.88 8.72 3.71ZM21.59 3.71L21.59 3.71Q21.59 3.50 21.84 3.50L21.84 3.50Q21.92 3.50 22.23 3.53Q22.53 3.56 22.58 3.56L22.58 3.56Q22.79 3.56 23.16 3.54Q23.52 3.53 23.63 3.53L23.63 3.53Q23.90 3.53 23.97 3.72L23.97 3.72Q24.14 4.09 24.57 5.03Q25.00 5.98 25.26 6.54Q25.52 7.10 25.93 7.97Q26.33 8.83 26.59 9.37Q26.84 9.91 27.11 10.46Q27.38 11.00 27.53 11.26Q27.68 11.52 27.72 11.52Q27.76 11.52 27.81 11.47Q27.86 11.42 27.91 11.34Q27.96 11.26 27.99 11.17Q28.03 11.09 28.09 10.96Q28.15 10.82 28.18 10.75L28.18 10.75L29.99 7.03Q30.30 6.40 30.53 5.89Q30.77 5.39 30.91 5.08Q31.05 4.77 31.15 4.55Q31.25 4.33 31.30 4.21Q31.35 4.10 31.37 4.04Q31.39 3.98 31.40 3.94Q31.42 3.91 31.43 3.88Q31.44 3.85 31.48 3.75Q31.51 3.65 31.55 3.62Q31.58 3.58 31.69 3.54Q31.79 3.50 31.96 3.50L31.96 3.50Q32.23 3.50 32.46 3.51Q32.69 3.53 33.17 3.53L33.17 3.53Q33.40 3.53 33.40 3.71L33.40 3.71Q33.40 3.85 33.31 3.91Q33.22 3.98 32.94 4.02L32.94 4.02Q32.59 4.06 32.45 4.37Q32.31 4.68 32.31 5.54L32.31 5.54Q32.31 7.43 32.40 8.97Q32.48 10.50 32.48 10.89L32.48 10.89Q32.48 12.29 32.70 12.68Q32.93 13.06 33.64 13.06L33.64 13.06Q33.74 13.06 33.82 13.13Q33.89 13.20 33.89 13.26L33.89 13.26Q33.89 13.34 33.88 13.38Q33.87 13.43 33.82 13.45Q33.78 13.48 33.74 13.48Q33.70 13.48 33.59 13.48L33.59 13.48Q33.17 13.48 32.76 13.45Q32.35 13.43 32.16 13.43L32.16 13.43Q31.77 13.43 31.35 13.46Q30.93 13.50 30.70 13.50L30.70 13.50Q30.45 13.50 30.45 13.30L30.45 13.30Q30.45 13.17 30.56 13.12Q30.67 13.06 30.82 13.05Q30.97 13.03 31.13 12.87Q31.29 12.71 31.36 12.39L31.36 12.39Q31.42 12.11 31.42 11.49L31.42 11.49Q31.42 11.05 31.39 10.42Q31.37 9.79 31.35 9.19Q31.32 8.60 31.29 8.07Q31.26 7.55 31.25 7.21L31.25 7.21L31.22 6.87Q31.22 6.27 31.09 6.27L31.09 6.27Q31.08 6.27 31.05 6.29Q31.02 6.30 31.00 6.33Q30.98 6.36 30.95 6.38Q30.93 6.41 30.90 6.47Q30.87 6.54 30.84 6.58Q30.81 6.62 30.77 6.70Q30.73 6.78 30.70 6.83Q30.67 6.89 30.63 6.99Q30.58 7.08 30.55 7.15L30.55 7.15L28.60 11.09Q28.27 11.77 27.89 12.56L27.89 12.56Q27.64 13.09 27.58 13.18Q27.52 13.27 27.44 13.27L27.44 13.27Q27.31 13.27 27.23 13.15Q27.15 13.03 26.98 12.63Q26.81 12.22 26.68 11.96L26.68 11.96Q24.12 6.75 24.05 6.65L24.05 6.65Q24.01 6.59 23.97 6.59L23.97 6.59Q23.86 6.59 23.86 7.15L23.86 7.15Q23.84 8.25 23.79 9.31Q23.73 10.37 23.73 10.85L23.73 10.85L23.73 11.48Q23.73 11.84 23.75 12.04Q23.77 12.24 23.86 12.49Q23.95 12.75 24.19 12.89Q24.43 13.03 24.81 13.08L24.81 13.08Q24.88 13.08 24.94 13.13Q25.00 13.17 25.00 13.23L25.00 13.23Q25.00 13.38 24.96 13.43Q24.92 13.48 24.79 13.48L24.79 13.48Q24.51 13.48 23.95 13.45Q23.39 13.43 23.34 13.43L23.34 13.43Q23.31 13.43 22.93 13.45Q22.55 13.47 22.19 13.47L22.19 13.47Q22.08 13.47 22.03 13.45Q21.98 13.44 21.94 13.39Q21.90 13.34 21.90 13.24L21.90 13.24Q21.90 13.13 22.02 13.09Q22.15 13.05 22.31 13.04Q22.47 13.03 22.67 12.82Q22.86 12.60 22.96 12.18L22.96 12.18Q23.03 11.87 23.13 9.74Q23.23 7.62 23.23 6.59L23.23 6.59Q23.23 5.19 22.95 4.66Q22.68 4.13 21.77 3.92L21.77 3.92Q21.59 3.88 21.59 3.71ZM34.45 3.65L34.45 3.65Q34.45 3.50 34.85 3.50L34.85 3.50Q34.99 3.50 35.49 3.53Q35.99 3.56 36.43 3.56L36.43 3.56Q36.69 3.56 36.94 3.54Q37.18 3.53 37.66 3.53L37.66 3.53Q37.97 3.53 37.97 3.72L37.97 3.72Q37.97 3.96 37.48 3.96L37.48 3.96Q37.20 3.96 37.07 4.54Q36.95 5.11 36.95 5.71L36.95 5.71L36.95 6.23Q36.95 6.57 36.93 6.99Q36.92 7.42 36.92 7.52L36.92 7.52Q36.92 7.87 37.00 7.97Q37.09 8.06 37.39 8.06L37.39 8.06Q37.42 8.06 37.94 8.06Q38.46 8.05 39.69 8.05L39.69 8.05Q39.80 8.05 40.07 8.06Q40.33 8.06 40.94 8.07Q41.55 8.08 42.34 8.08L42.34 8.08Q42.43 8.08 42.46 7.84L42.46 7.84Q42.49 7.56 42.49 6.13L42.49 6.13L42.49 5.38Q42.49 4.83 42.37 4.51Q42.25 4.19 42.08 4.09Q41.90 3.99 41.73 3.96Q41.55 3.93 41.43 3.88Q41.31 3.84 41.31 3.70Q41.31 3.56 41.86 3.56L41.86 3.56Q42 3.56 42.46 3.57Q42.92 3.58 43.22 3.58L43.22 3.58Q43.36 3.58 43.69 3.57Q44.03 3.56 44.31 3.56L44.31 3.56Q44.63 3.56 44.63 3.74Q44.63 3.92 44.44 3.92L44.44 3.92Q44.04 3.92 43.84 4.16Q43.64 4.40 43.64 4.79L43.64 4.79Q43.64 5.25 43.62 6.42Q43.60 7.59 43.60 8.19L43.60 8.19Q43.60 8.51 43.58 9.20Q43.57 9.90 43.57 10.29L43.57 10.29L43.57 10.81Q43.57 11.23 43.60 11.58Q43.62 11.94 43.62 12.10L43.62 12.10Q43.62 13.01 44.80 13.13L44.80 13.13Q44.97 13.13 44.97 13.29L44.97 13.29Q44.97 13.38 44.83 13.41Q44.69 13.44 44.28 13.44L44.28 13.44Q44.13 13.44 43.77 13.40Q43.41 13.37 43.20 13.37L43.20 13.37Q42.95 13.37 42.59 13.40Q42.24 13.44 41.89 13.44L41.89 13.44Q41.72 13.44 41.65 13.44Q41.58 13.44 41.50 13.42Q41.43 13.40 41.41 13.36Q41.38 13.33 41.38 13.26L41.38 13.26Q41.38 13.17 41.52 13.10Q41.66 13.03 41.83 12.99Q42 12.95 42.16 12.83Q42.32 12.71 42.35 12.53L42.35 12.53Q42.45 12.03 42.45 11.51L42.45 11.51Q42.45 11.37 42.45 11.12Q42.46 10.86 42.46 10.75L42.46 10.75Q42.46 10.50 42.48 9.93Q42.49 9.35 42.49 9.03L42.49 9.03Q42.49 8.82 42.32 8.74Q42.15 8.65 41.61 8.65L41.61 8.65Q41.40 8.65 40.64 8.68L40.64 8.68L39.89 8.69Q39.27 8.69 38.50 8.67Q37.73 8.65 37.31 8.65L37.31 8.65Q37.10 8.65 37.03 8.74Q36.96 8.82 36.96 9.17Q36.96 9.52 36.93 10.08Q36.90 10.64 36.90 10.89L36.90 10.89L36.90 11.49Q36.90 12.10 37.02 12.39Q37.13 12.68 37.56 12.96L37.56 12.96Q37.67 13.03 38.16 13.03L38.16 13.03Q38.26 13.03 38.35 13.08Q38.43 13.13 38.43 13.19L38.43 13.19Q38.43 13.44 37.98 13.44L37.98 13.44Q37.56 13.44 37.29 13.41Q37.02 13.38 36.82 13.38L36.82 13.38Q36.43 13.38 35.98 13.42Q35.53 13.45 35.31 13.45L35.31 13.45Q34.65 13.45 34.65 13.24L34.65 13.24Q34.65 13.12 34.78 13.07Q34.92 13.02 35.08 13.00Q35.25 12.98 35.43 12.82Q35.62 12.66 35.69 12.35L35.69 12.35Q35.73 12.11 35.80 10.91Q35.87 9.70 35.87 8.61L35.87 8.61L35.87 7.81Q35.87 7.63 35.88 7.12Q35.88 6.61 35.88 6.30L35.88 6.30Q35.88 5.24 35.80 4.63L35.80 4.63Q35.76 4.28 35.43 4.09Q35.10 3.89 34.75 3.89L34.75 3.89Q34.61 3.89 34.53 3.80Q34.45 3.71 34.45 3.65Z"></path></g><!----><!----></svg>